<mxfile host="app.diagrams.net" agent="Mozilla/5.0 (Windows NT 10.0; Win64; x64) AppleWebKit/537.36 (KHTML, like Gecko) Chrome/133.0.0.0 Safari/537.36" version="26.0.16" pages="3">
  <diagram name="Page-1" id="wO8gC1wFTMJwGTZnuySG">
    <mxGraphModel dx="794" dy="1546" grid="1" gridSize="10" guides="1" tooltips="1" connect="1" arrows="1" fold="1" page="1" pageScale="1" pageWidth="850" pageHeight="1100" math="0" shadow="0">
      <root>
        <mxCell id="0" />
        <mxCell id="1" parent="0" />
        <mxCell id="kF1AzFahrbASZazw7CUN-34" value="" style="edgeStyle=orthogonalEdgeStyle;shape=flexArrow;rounded=0;orthogonalLoop=1;jettySize=auto;html=1;" parent="1" edge="1">
          <mxGeometry relative="1" as="geometry">
            <mxPoint x="350" y="-370" as="targetPoint" />
            <mxPoint x="250" y="-455" as="sourcePoint" />
          </mxGeometry>
        </mxCell>
        <mxCell id="kF1AzFahrbASZazw7CUN-36" value="" style="edgeStyle=orthogonalEdgeStyle;shape=flexArrow;rounded=0;orthogonalLoop=1;jettySize=auto;html=1;entryX=1;entryY=0;entryDx=0;entryDy=50;entryPerimeter=0;" parent="1" source="kF1AzFahrbASZazw7CUN-2" target="kF1AzFahrbASZazw7CUN-14" edge="1">
          <mxGeometry relative="1" as="geometry">
            <mxPoint x="240" y="-120" as="targetPoint" />
            <Array as="points">
              <mxPoint x="345" y="-170" />
            </Array>
          </mxGeometry>
        </mxCell>
        <mxCell id="kF1AzFahrbASZazw7CUN-2" value="&lt;div&gt;Flask Controller&lt;/div&gt;&lt;div&gt;- Handles routing (e.g., /login)&lt;/div&gt;&lt;div&gt;- Validates user input&lt;/div&gt;&lt;div&gt;- Role-based access control&lt;/div&gt;&lt;div&gt;&lt;br&gt;&lt;/div&gt;" style="rounded=1;whiteSpace=wrap;html=1;fillColor=#d5e8d4;strokeColor=#82b366;align=center;shadow=1;" parent="1" vertex="1">
          <mxGeometry x="240" y="-370" width="210" height="120" as="geometry" />
        </mxCell>
        <mxCell id="kF1AzFahrbASZazw7CUN-46" value="" style="edgeStyle=orthogonalEdgeStyle;shape=flexArrow;rounded=0;orthogonalLoop=1;jettySize=auto;html=1;entryX=0.5;entryY=1;entryDx=0;entryDy=0;" parent="1" source="kF1AzFahrbASZazw7CUN-14" edge="1">
          <mxGeometry relative="1" as="geometry">
            <mxPoint x="150" y="-400" as="targetPoint" />
          </mxGeometry>
        </mxCell>
        <mxCell id="kF1AzFahrbASZazw7CUN-14" value="&lt;div&gt;Model Layer&lt;/div&gt;&lt;div&gt;- SQLite database operations&lt;/div&gt;&lt;div&gt;- Load and save student data&lt;/div&gt;&lt;div&gt;&lt;br&gt;&lt;/div&gt;&lt;div&gt;&lt;br&gt;&lt;/div&gt;" style="shape=cylinder3;whiteSpace=wrap;html=1;boundedLbl=1;backgroundOutline=1;size=15;fillColor=#d5e8d4;strokeColor=#82b366;shadow=0;" parent="1" vertex="1">
          <mxGeometry x="85" y="-220" width="130" height="170" as="geometry" />
        </mxCell>
        <mxCell id="kF1AzFahrbASZazw7CUN-38" value="" style="edgeStyle=orthogonalEdgeStyle;shape=flexArrow;rounded=0;orthogonalLoop=1;jettySize=auto;html=1;entryX=0.334;entryY=0.016;entryDx=0;entryDy=0;entryPerimeter=0;" parent="1" source="kF1AzFahrbASZazw7CUN-25" target="kF1AzFahrbASZazw7CUN-26" edge="1">
          <mxGeometry relative="1" as="geometry">
            <mxPoint x="650" y="-455" as="targetPoint" />
          </mxGeometry>
        </mxCell>
        <mxCell id="kF1AzFahrbASZazw7CUN-25" value="" style="image;aspect=fixed;perimeter=ellipsePerimeter;html=1;align=center;shadow=0;dashed=0;fontColor=#4277BB;labelBackgroundColor=default;fontSize=12;spacingTop=3;image=img/lib/ibm/users/browser.svg;" parent="1" vertex="1">
          <mxGeometry x="520" y="-485" width="60" height="60" as="geometry" />
        </mxCell>
        <mxCell id="kF1AzFahrbASZazw7CUN-44" value="" style="edgeStyle=orthogonalEdgeStyle;shape=flexArrow;rounded=0;orthogonalLoop=1;jettySize=auto;html=1;entryX=1;entryY=0.5;entryDx=0;entryDy=0;" parent="1" source="kF1AzFahrbASZazw7CUN-26" target="kF1AzFahrbASZazw7CUN-31" edge="1">
          <mxGeometry relative="1" as="geometry">
            <mxPoint x="620" y="-130" as="targetPoint" />
            <Array as="points">
              <mxPoint x="697" y="-135" />
            </Array>
          </mxGeometry>
        </mxCell>
        <mxCell id="kF1AzFahrbASZazw7CUN-26" value="" style="image;points=[];aspect=fixed;html=1;align=center;shadow=0;dashed=0;image=img/lib/allied_telesis/storage/Datacenter_Server_Rack.svg;" parent="1" vertex="1">
          <mxGeometry x="650" y="-405" width="93.72" height="190" as="geometry" />
        </mxCell>
        <mxCell id="kF1AzFahrbASZazw7CUN-48" value="" style="edgeStyle=orthogonalEdgeStyle;shape=flexArrow;rounded=0;orthogonalLoop=1;jettySize=auto;html=1;" parent="1" source="kF1AzFahrbASZazw7CUN-31" edge="1">
          <mxGeometry relative="1" as="geometry">
            <mxPoint x="570" y="-420" as="targetPoint" />
          </mxGeometry>
        </mxCell>
        <mxCell id="kF1AzFahrbASZazw7CUN-31" value="" style="image;html=1;image=img/lib/clip_art/computers/Database_128x128.png" parent="1" vertex="1">
          <mxGeometry x="530" y="-175" width="80" height="80" as="geometry" />
        </mxCell>
      </root>
    </mxGraphModel>
  </diagram>
  <diagram id="jDZJ3rTfrbAiIH7CNq8A" name="Page-2">
    <mxGraphModel dx="794" dy="446" grid="1" gridSize="10" guides="1" tooltips="1" connect="1" arrows="1" fold="1" page="1" pageScale="1" pageWidth="850" pageHeight="1100" math="0" shadow="0">
      <root>
        <mxCell id="0" />
        <mxCell id="1" parent="0" />
        <mxCell id="0Ol-uaopnTKPLoc_QTc0-2" value="Initialize App&amp;nbsp;" style="rounded=1;whiteSpace=wrap;html=1;fillColor=#d5e8d4;strokeColor=#82b366;shadow=1;" vertex="1" parent="1">
          <mxGeometry x="300" y="40" width="120" height="60" as="geometry" />
        </mxCell>
        <mxCell id="0Ol-uaopnTKPLoc_QTc0-3" value="Database &lt;br&gt;Initialization" style="rounded=1;whiteSpace=wrap;html=1;fillColor=#d5e8d4;strokeColor=#82b366;glass=0;shadow=1;" vertex="1" parent="1">
          <mxGeometry x="300" y="150" width="120" height="60" as="geometry" />
        </mxCell>
        <mxCell id="0Ol-uaopnTKPLoc_QTc0-4" value="User &lt;br&gt;Login System&amp;nbsp;" style="rounded=1;whiteSpace=wrap;html=1;fillColor=#d5e8d4;strokeColor=#82b366;shadow=1;" vertex="1" parent="1">
          <mxGeometry x="300" y="260" width="120" height="60" as="geometry" />
        </mxCell>
        <mxCell id="0Ol-uaopnTKPLoc_QTc0-6" value="" style="endArrow=classic;html=1;rounded=0;exitX=0.5;exitY=1;exitDx=0;exitDy=0;entryX=0.5;entryY=0;entryDx=0;entryDy=0;" edge="1" parent="1" source="0Ol-uaopnTKPLoc_QTc0-3" target="0Ol-uaopnTKPLoc_QTc0-4">
          <mxGeometry width="50" height="50" relative="1" as="geometry">
            <mxPoint x="380" y="280" as="sourcePoint" />
            <mxPoint x="430" y="230" as="targetPoint" />
          </mxGeometry>
        </mxCell>
        <mxCell id="0Ol-uaopnTKPLoc_QTc0-7" value="" style="endArrow=classic;html=1;rounded=0;exitX=0.5;exitY=1;exitDx=0;exitDy=0;entryX=0.5;entryY=0;entryDx=0;entryDy=0;" edge="1" parent="1" source="0Ol-uaopnTKPLoc_QTc0-2" target="0Ol-uaopnTKPLoc_QTc0-3">
          <mxGeometry width="50" height="50" relative="1" as="geometry">
            <mxPoint x="360" y="130" as="sourcePoint" />
            <mxPoint x="410" y="80" as="targetPoint" />
            <Array as="points" />
          </mxGeometry>
        </mxCell>
        <mxCell id="0Ol-uaopnTKPLoc_QTc0-8" value="&lt;p data-pm-slice=&quot;1 1 []&quot;&gt;Home&lt;br&gt;&lt;span style=&quot;background-color: initial;&quot;&gt;dashboard&lt;/span&gt;&lt;span style=&quot;background-color: initial;&quot;&gt;&amp;nbsp;&amp;nbsp;&lt;/span&gt;&lt;/p&gt;" style="rounded=1;whiteSpace=wrap;html=1;fillColor=#f8cecc;strokeColor=#b85450;shadow=1;" vertex="1" parent="1">
          <mxGeometry x="120" y="400" width="120" height="60" as="geometry" />
        </mxCell>
        <mxCell id="0Ol-uaopnTKPLoc_QTc0-9" value="Student" style="rounded=1;whiteSpace=wrap;html=1;fillColor=#fff2cc;strokeColor=#d6b656;shadow=1;" vertex="1" parent="1">
          <mxGeometry x="480" y="400" width="120" height="60" as="geometry" />
        </mxCell>
        <mxCell id="0Ol-uaopnTKPLoc_QTc0-10" value="Lecturer" style="rounded=1;whiteSpace=wrap;html=1;fillColor=#e1d5e7;strokeColor=#9673a6;shadow=1;" vertex="1" parent="1">
          <mxGeometry x="299.99" y="400" width="120" height="60" as="geometry" />
        </mxCell>
        <mxCell id="0Ol-uaopnTKPLoc_QTc0-11" value="Add/delete&lt;br&gt;student&lt;br&gt;&amp;amp;&lt;br&gt;Grading" style="rounded=1;whiteSpace=wrap;html=1;fillColor=#e1d5e7;strokeColor=#9673a6;shadow=1;" vertex="1" parent="1">
          <mxGeometry x="300" y="510" width="120" height="60" as="geometry" />
        </mxCell>
        <mxCell id="0Ol-uaopnTKPLoc_QTc0-14" value="" style="endArrow=classic;html=1;rounded=0;exitX=0.5;exitY=1;exitDx=0;exitDy=0;entryX=0.5;entryY=0;entryDx=0;entryDy=0;" edge="1" parent="1" source="0Ol-uaopnTKPLoc_QTc0-4" target="0Ol-uaopnTKPLoc_QTc0-10">
          <mxGeometry width="50" height="50" relative="1" as="geometry">
            <mxPoint x="370" y="380" as="sourcePoint" />
            <mxPoint x="420" y="330" as="targetPoint" />
          </mxGeometry>
        </mxCell>
        <mxCell id="0Ol-uaopnTKPLoc_QTc0-15" value="" style="endArrow=none;html=1;rounded=0;" edge="1" parent="1">
          <mxGeometry width="50" height="50" relative="1" as="geometry">
            <mxPoint x="160" y="360" as="sourcePoint" />
            <mxPoint x="550" y="360" as="targetPoint" />
          </mxGeometry>
        </mxCell>
        <mxCell id="0Ol-uaopnTKPLoc_QTc0-16" value="" style="endArrow=classic;html=1;rounded=0;entryX=0.328;entryY=0.022;entryDx=0;entryDy=0;entryPerimeter=0;" edge="1" parent="1" target="0Ol-uaopnTKPLoc_QTc0-8">
          <mxGeometry width="50" height="50" relative="1" as="geometry">
            <mxPoint x="160" y="360" as="sourcePoint" />
            <mxPoint x="180" y="280" as="targetPoint" />
          </mxGeometry>
        </mxCell>
        <mxCell id="0Ol-uaopnTKPLoc_QTc0-17" value="" style="endArrow=classic;html=1;rounded=0;" edge="1" parent="1">
          <mxGeometry width="50" height="50" relative="1" as="geometry">
            <mxPoint x="550" y="360" as="sourcePoint" />
            <mxPoint x="550" y="400" as="targetPoint" />
          </mxGeometry>
        </mxCell>
        <mxCell id="0Ol-uaopnTKPLoc_QTc0-18" value="only Reading&amp;nbsp;&lt;br&gt;operations" style="rounded=1;whiteSpace=wrap;html=1;fillColor=#fff2cc;strokeColor=#d6b656;shadow=1;" vertex="1" parent="1">
          <mxGeometry x="480" y="510" width="120" height="60" as="geometry" />
        </mxCell>
        <mxCell id="0Ol-uaopnTKPLoc_QTc0-19" value="Filter&amp;nbsp;&lt;br&gt;(student ID)" style="rounded=1;whiteSpace=wrap;html=1;fillColor=#f8cecc;strokeColor=#b85450;shadow=1;" vertex="1" parent="1">
          <mxGeometry x="120" y="510" width="120" height="60" as="geometry" />
        </mxCell>
        <mxCell id="0Ol-uaopnTKPLoc_QTc0-20" value="Export CSV" style="rounded=1;whiteSpace=wrap;html=1;shadow=1;fillColor=#dae8fc;strokeColor=#6c8ebf;" vertex="1" parent="1">
          <mxGeometry x="300" y="730" width="120" height="60" as="geometry" />
        </mxCell>
        <mxCell id="0Ol-uaopnTKPLoc_QTc0-21" value="Data Visualization&amp;nbsp;" style="rounded=1;whiteSpace=wrap;html=1;fillColor=#dae8fc;strokeColor=#6c8ebf;shadow=1;" vertex="1" parent="1">
          <mxGeometry x="300" y="630" width="120" height="60" as="geometry" />
        </mxCell>
        <mxCell id="0Ol-uaopnTKPLoc_QTc0-22" value="User Logout&amp;nbsp;" style="rounded=1;whiteSpace=wrap;html=1;shadow=1;fillColor=#dae8fc;strokeColor=#6c8ebf;" vertex="1" parent="1">
          <mxGeometry x="299.99" y="820" width="120" height="60" as="geometry" />
        </mxCell>
        <mxCell id="0Ol-uaopnTKPLoc_QTc0-23" value="" style="endArrow=classic;html=1;rounded=0;exitX=0.5;exitY=1;exitDx=0;exitDy=0;entryX=0.5;entryY=0;entryDx=0;entryDy=0;" edge="1" parent="1" source="0Ol-uaopnTKPLoc_QTc0-8" target="0Ol-uaopnTKPLoc_QTc0-19">
          <mxGeometry width="50" height="50" relative="1" as="geometry">
            <mxPoint x="180" y="490" as="sourcePoint" />
            <mxPoint x="230" y="440" as="targetPoint" />
            <Array as="points" />
          </mxGeometry>
        </mxCell>
        <mxCell id="0Ol-uaopnTKPLoc_QTc0-25" value="" style="endArrow=classic;html=1;rounded=0;exitX=0.5;exitY=1;exitDx=0;exitDy=0;entryX=0.5;entryY=0;entryDx=0;entryDy=0;" edge="1" parent="1" source="0Ol-uaopnTKPLoc_QTc0-10" target="0Ol-uaopnTKPLoc_QTc0-11">
          <mxGeometry width="50" height="50" relative="1" as="geometry">
            <mxPoint x="370" y="490" as="sourcePoint" />
            <mxPoint x="420" y="440" as="targetPoint" />
          </mxGeometry>
        </mxCell>
        <mxCell id="0Ol-uaopnTKPLoc_QTc0-26" value="" style="endArrow=classic;html=1;rounded=0;exitX=0.5;exitY=1;exitDx=0;exitDy=0;entryX=0.5;entryY=0;entryDx=0;entryDy=0;" edge="1" parent="1" source="0Ol-uaopnTKPLoc_QTc0-9" target="0Ol-uaopnTKPLoc_QTc0-18">
          <mxGeometry width="50" height="50" relative="1" as="geometry">
            <mxPoint x="540" y="480" as="sourcePoint" />
            <mxPoint x="590" y="430" as="targetPoint" />
          </mxGeometry>
        </mxCell>
        <mxCell id="0Ol-uaopnTKPLoc_QTc0-28" value="" style="endArrow=none;html=1;rounded=0;" edge="1" parent="1">
          <mxGeometry width="50" height="50" relative="1" as="geometry">
            <mxPoint x="180" y="600" as="sourcePoint" />
            <mxPoint x="540" y="600" as="targetPoint" />
          </mxGeometry>
        </mxCell>
        <mxCell id="0Ol-uaopnTKPLoc_QTc0-29" value="" style="endArrow=classic;html=1;rounded=0;exitX=0.5;exitY=1;exitDx=0;exitDy=0;" edge="1" parent="1" source="0Ol-uaopnTKPLoc_QTc0-19">
          <mxGeometry width="50" height="50" relative="1" as="geometry">
            <mxPoint x="190" y="630" as="sourcePoint" />
            <mxPoint x="180" y="600" as="targetPoint" />
          </mxGeometry>
        </mxCell>
        <mxCell id="0Ol-uaopnTKPLoc_QTc0-30" value="" style="endArrow=classic;html=1;rounded=0;entryX=0.5;entryY=0;entryDx=0;entryDy=0;" edge="1" parent="1" target="0Ol-uaopnTKPLoc_QTc0-21">
          <mxGeometry width="50" height="50" relative="1" as="geometry">
            <mxPoint x="360" y="600" as="sourcePoint" />
            <mxPoint x="420" y="550" as="targetPoint" />
          </mxGeometry>
        </mxCell>
        <mxCell id="0Ol-uaopnTKPLoc_QTc0-31" value="" style="endArrow=classic;html=1;rounded=0;exitX=0.5;exitY=1;exitDx=0;exitDy=0;" edge="1" parent="1" source="0Ol-uaopnTKPLoc_QTc0-11">
          <mxGeometry width="50" height="50" relative="1" as="geometry">
            <mxPoint x="410" y="610" as="sourcePoint" />
            <mxPoint x="360" y="600" as="targetPoint" />
          </mxGeometry>
        </mxCell>
        <mxCell id="0Ol-uaopnTKPLoc_QTc0-32" value="" style="endArrow=classic;html=1;rounded=0;exitX=0.5;exitY=1;exitDx=0;exitDy=0;" edge="1" parent="1" source="0Ol-uaopnTKPLoc_QTc0-18">
          <mxGeometry width="50" height="50" relative="1" as="geometry">
            <mxPoint x="570" y="630" as="sourcePoint" />
            <mxPoint x="540" y="600" as="targetPoint" />
          </mxGeometry>
        </mxCell>
        <mxCell id="0Ol-uaopnTKPLoc_QTc0-33" value="" style="endArrow=classic;html=1;rounded=0;exitX=0.5;exitY=1;exitDx=0;exitDy=0;entryX=0.5;entryY=0;entryDx=0;entryDy=0;" edge="1" parent="1" source="0Ol-uaopnTKPLoc_QTc0-21" target="0Ol-uaopnTKPLoc_QTc0-20">
          <mxGeometry width="50" height="50" relative="1" as="geometry">
            <mxPoint x="370" y="720" as="sourcePoint" />
            <mxPoint x="420" y="670" as="targetPoint" />
          </mxGeometry>
        </mxCell>
        <mxCell id="0Ol-uaopnTKPLoc_QTc0-34" value="" style="endArrow=classic;html=1;rounded=0;exitX=0.5;exitY=1;exitDx=0;exitDy=0;" edge="1" parent="1" source="0Ol-uaopnTKPLoc_QTc0-20" target="0Ol-uaopnTKPLoc_QTc0-22">
          <mxGeometry width="50" height="50" relative="1" as="geometry">
            <mxPoint x="510" y="790" as="sourcePoint" />
            <mxPoint x="560" y="740" as="targetPoint" />
          </mxGeometry>
        </mxCell>
        <mxCell id="0Ol-uaopnTKPLoc_QTc0-35" value="Un authorized&lt;br&gt;User" style="rounded=1;whiteSpace=wrap;html=1;fillColor=#f5f5f5;fontColor=#333333;strokeColor=#666666;shadow=1;" vertex="1" parent="1">
          <mxGeometry x="480" y="260" width="120" height="60" as="geometry" />
        </mxCell>
        <mxCell id="0Ol-uaopnTKPLoc_QTc0-36" value="" style="endArrow=classic;html=1;rounded=0;exitX=1;exitY=0.5;exitDx=0;exitDy=0;entryX=0;entryY=0.5;entryDx=0;entryDy=0;" edge="1" parent="1" source="0Ol-uaopnTKPLoc_QTc0-4" target="0Ol-uaopnTKPLoc_QTc0-35">
          <mxGeometry width="50" height="50" relative="1" as="geometry">
            <mxPoint x="440" y="290" as="sourcePoint" />
            <mxPoint x="490" y="240" as="targetPoint" />
          </mxGeometry>
        </mxCell>
        <mxCell id="0Ol-uaopnTKPLoc_QTc0-37" value="" style="endArrow=none;html=1;rounded=0;exitX=0.5;exitY=0;exitDx=0;exitDy=0;" edge="1" parent="1" source="0Ol-uaopnTKPLoc_QTc0-35">
          <mxGeometry width="50" height="50" relative="1" as="geometry">
            <mxPoint x="500" y="240" as="sourcePoint" />
            <mxPoint x="540" y="180" as="targetPoint" />
          </mxGeometry>
        </mxCell>
        <mxCell id="0Ol-uaopnTKPLoc_QTc0-38" value="" style="endArrow=classic;html=1;rounded=0;entryX=1;entryY=0.5;entryDx=0;entryDy=0;" edge="1" parent="1" target="0Ol-uaopnTKPLoc_QTc0-3">
          <mxGeometry width="50" height="50" relative="1" as="geometry">
            <mxPoint x="540" y="180" as="sourcePoint" />
            <mxPoint x="520" y="110" as="targetPoint" />
          </mxGeometry>
        </mxCell>
      </root>
    </mxGraphModel>
  </diagram>
  <diagram id="KYolkLIjXGfqBqvTVN-H" name="network Architecture">
    <mxGraphModel dx="934" dy="525" grid="1" gridSize="10" guides="1" tooltips="1" connect="1" arrows="1" fold="1" page="1" pageScale="1" pageWidth="850" pageHeight="1100" math="0" shadow="0">
      <root>
        <mxCell id="0" />
        <mxCell id="1" parent="0" />
        <mxCell id="DljM9G16VnVff5lQ_oat-41" value="" style="edgeStyle=orthogonalEdgeStyle;rounded=0;orthogonalLoop=1;jettySize=auto;html=1;" edge="1" parent="1" source="DljM9G16VnVff5lQ_oat-1" target="DljM9G16VnVff5lQ_oat-5">
          <mxGeometry relative="1" as="geometry" />
        </mxCell>
        <mxCell id="DljM9G16VnVff5lQ_oat-1" value="" style="outlineConnect=0;dashed=0;verticalLabelPosition=bottom;verticalAlign=top;align=center;html=1;shape=mxgraph.aws3.internet_gateway;fillColor=#F58536;gradientColor=none;" vertex="1" parent="1">
          <mxGeometry x="340" y="60" width="69" height="72" as="geometry" />
        </mxCell>
        <mxCell id="DljM9G16VnVff5lQ_oat-22" value="" style="edgeStyle=orthogonalEdgeStyle;rounded=0;orthogonalLoop=1;jettySize=auto;html=1;" edge="1" parent="1" source="DljM9G16VnVff5lQ_oat-3" target="DljM9G16VnVff5lQ_oat-4">
          <mxGeometry relative="1" as="geometry" />
        </mxCell>
        <mxCell id="DljM9G16VnVff5lQ_oat-3" value="Internet" style="outlineConnect=0;dashed=0;verticalLabelPosition=bottom;verticalAlign=top;align=left;shape=mxgraph.aws3.internet_gateway;fillColor=#F58536;gradientColor=none;labelBackgroundColor=default;textShadow=0;fontStyle=1;labelPosition=right;" vertex="1" parent="1">
          <mxGeometry x="584.5" y="60" width="69" height="72" as="geometry" />
        </mxCell>
        <mxCell id="DljM9G16VnVff5lQ_oat-23" value="" style="edgeStyle=orthogonalEdgeStyle;rounded=0;orthogonalLoop=1;jettySize=auto;html=1;" edge="1" parent="1" source="DljM9G16VnVff5lQ_oat-4" target="DljM9G16VnVff5lQ_oat-9">
          <mxGeometry relative="1" as="geometry" />
        </mxCell>
        <mxCell id="DljM9G16VnVff5lQ_oat-26" value="" style="edgeStyle=orthogonalEdgeStyle;rounded=0;orthogonalLoop=1;jettySize=auto;html=1;" edge="1" parent="1" source="DljM9G16VnVff5lQ_oat-4" target="DljM9G16VnVff5lQ_oat-9">
          <mxGeometry relative="1" as="geometry" />
        </mxCell>
        <mxCell id="DljM9G16VnVff5lQ_oat-4" value="Router&lt;div&gt;&lt;br&gt;&lt;/div&gt;" style="image;aspect=fixed;html=1;points=[];align=left;fontSize=12;image=img/lib/azure2/networking/Virtual_Router.svg;fontStyle=1;labelPosition=right;verticalLabelPosition=bottom;verticalAlign=top;" vertex="1" parent="1">
          <mxGeometry x="585" y="200" width="68" height="68" as="geometry" />
        </mxCell>
        <mxCell id="DljM9G16VnVff5lQ_oat-42" value="" style="edgeStyle=orthogonalEdgeStyle;rounded=0;orthogonalLoop=1;jettySize=auto;html=1;" edge="1" parent="1" source="DljM9G16VnVff5lQ_oat-5" target="DljM9G16VnVff5lQ_oat-8">
          <mxGeometry relative="1" as="geometry" />
        </mxCell>
        <mxCell id="DljM9G16VnVff5lQ_oat-5" value="" style="image;aspect=fixed;html=1;points=[];align=center;fontSize=12;image=img/lib/azure2/networking/Virtual_Router.svg;" vertex="1" parent="1">
          <mxGeometry x="340.5" y="200" width="68" height="68" as="geometry" />
        </mxCell>
        <mxCell id="DljM9G16VnVff5lQ_oat-35" value="" style="edgeStyle=orthogonalEdgeStyle;rounded=0;orthogonalLoop=1;jettySize=auto;html=1;" edge="1" parent="1" source="DljM9G16VnVff5lQ_oat-6" target="DljM9G16VnVff5lQ_oat-11">
          <mxGeometry relative="1" as="geometry" />
        </mxCell>
        <mxCell id="DljM9G16VnVff5lQ_oat-6" value="L3 Switch&lt;div&gt;&lt;br&gt;&lt;/div&gt;" style="sketch=0;points=[[0.015,0.015,0],[0.985,0.015,0],[0.985,0.985,0],[0.015,0.985,0],[0.25,0,0],[0.5,0,0],[0.75,0,0],[1,0.25,0],[1,0.5,0],[1,0.75,0],[0.75,1,0],[0.5,1,0],[0.25,1,0],[0,0.75,0],[0,0.5,0],[0,0.25,0]];verticalLabelPosition=bottom;html=1;verticalAlign=top;aspect=fixed;align=left;pointerEvents=1;shape=mxgraph.cisco19.rect;prIcon=l3_switch;fillColor=#FAFAFA;strokeColor=#005073;fontStyle=1;labelPosition=right;" vertex="1" parent="1">
          <mxGeometry x="589" y="490" width="60" height="60" as="geometry" />
        </mxCell>
        <mxCell id="DljM9G16VnVff5lQ_oat-40" value="" style="edgeStyle=orthogonalEdgeStyle;rounded=0;orthogonalLoop=1;jettySize=auto;html=1;" edge="1" parent="1" source="DljM9G16VnVff5lQ_oat-7" target="DljM9G16VnVff5lQ_oat-10">
          <mxGeometry relative="1" as="geometry" />
        </mxCell>
        <mxCell id="DljM9G16VnVff5lQ_oat-7" value="" style="sketch=0;points=[[0.015,0.015,0],[0.985,0.015,0],[0.985,0.985,0],[0.015,0.985,0],[0.25,0,0],[0.5,0,0],[0.75,0,0],[1,0.25,0],[1,0.5,0],[1,0.75,0],[0.75,1,0],[0.5,1,0],[0.25,1,0],[0,0.75,0],[0,0.5,0],[0,0.25,0]];verticalLabelPosition=bottom;html=1;verticalAlign=top;aspect=fixed;align=center;pointerEvents=1;shape=mxgraph.cisco19.rect;prIcon=l3_switch;fillColor=#FAFAFA;strokeColor=#005073;" vertex="1" parent="1">
          <mxGeometry x="349.5" y="495" width="50" height="50" as="geometry" />
        </mxCell>
        <mxCell id="DljM9G16VnVff5lQ_oat-43" value="" style="edgeStyle=orthogonalEdgeStyle;rounded=0;orthogonalLoop=1;jettySize=auto;html=1;" edge="1" parent="1" source="DljM9G16VnVff5lQ_oat-8" target="DljM9G16VnVff5lQ_oat-7">
          <mxGeometry relative="1" as="geometry" />
        </mxCell>
        <mxCell id="DljM9G16VnVff5lQ_oat-8" value="" style="sketch=0;points=[[0,0,0],[0.25,0,0],[0.5,0,0],[0.75,0,0],[1,0,0],[0,1,0],[0.25,1,0],[0.5,1,0],[0.75,1,0],[1,1,0],[0,0.25,0],[0,0.5,0],[0,0.75,0],[1,0.25,0],[1,0.5,0],[1,0.75,0]];outlineConnect=0;fontColor=#232F3E;fillColor=#DD344C;strokeColor=#ffffff;dashed=0;verticalLabelPosition=bottom;verticalAlign=top;align=center;html=1;fontSize=12;fontStyle=0;aspect=fixed;shape=mxgraph.aws4.resourceIcon;resIcon=mxgraph.aws4.network_firewall;" vertex="1" parent="1">
          <mxGeometry x="335.5" y="340" width="78" height="78" as="geometry" />
        </mxCell>
        <mxCell id="DljM9G16VnVff5lQ_oat-24" value="" style="edgeStyle=orthogonalEdgeStyle;rounded=0;orthogonalLoop=1;jettySize=auto;html=1;" edge="1" parent="1" source="DljM9G16VnVff5lQ_oat-9" target="DljM9G16VnVff5lQ_oat-6">
          <mxGeometry relative="1" as="geometry" />
        </mxCell>
        <mxCell id="DljM9G16VnVff5lQ_oat-25" value="" style="edgeStyle=orthogonalEdgeStyle;rounded=0;orthogonalLoop=1;jettySize=auto;html=1;" edge="1" parent="1" source="DljM9G16VnVff5lQ_oat-9" target="DljM9G16VnVff5lQ_oat-6">
          <mxGeometry relative="1" as="geometry" />
        </mxCell>
        <mxCell id="DljM9G16VnVff5lQ_oat-9" value="Firewall" style="sketch=0;points=[[0,0,0],[0.25,0,0],[0.5,0,0],[0.75,0,0],[1,0,0],[0,1,0],[0.25,1,0],[0.5,1,0],[0.75,1,0],[1,1,0],[0,0.25,0],[0,0.5,0],[0,0.75,0],[1,0.25,0],[1,0.5,0],[1,0.75,0]];outlineConnect=0;fontColor=#232F3E;fillColor=#DD344C;strokeColor=#ffffff;dashed=0;verticalLabelPosition=bottom;verticalAlign=top;align=left;html=1;fontSize=12;fontStyle=1;aspect=fixed;shape=mxgraph.aws4.resourceIcon;resIcon=mxgraph.aws4.network_firewall;labelBackgroundColor=default;labelPosition=right;" vertex="1" parent="1">
          <mxGeometry x="580" y="340" width="78" height="78" as="geometry" />
        </mxCell>
        <mxCell id="DljM9G16VnVff5lQ_oat-48" value="" style="edgeStyle=orthogonalEdgeStyle;rounded=0;orthogonalLoop=1;jettySize=auto;html=1;" edge="1" parent="1" source="DljM9G16VnVff5lQ_oat-10" target="DljM9G16VnVff5lQ_oat-17">
          <mxGeometry relative="1" as="geometry">
            <Array as="points">
              <mxPoint x="375" y="730" />
              <mxPoint x="439" y="730" />
            </Array>
          </mxGeometry>
        </mxCell>
        <mxCell id="DljM9G16VnVff5lQ_oat-49" value="" style="edgeStyle=orthogonalEdgeStyle;rounded=0;orthogonalLoop=1;jettySize=auto;html=1;" edge="1" parent="1" source="DljM9G16VnVff5lQ_oat-10" target="DljM9G16VnVff5lQ_oat-17">
          <mxGeometry relative="1" as="geometry">
            <Array as="points">
              <mxPoint x="375" y="730" />
              <mxPoint x="439" y="730" />
            </Array>
          </mxGeometry>
        </mxCell>
        <mxCell id="DljM9G16VnVff5lQ_oat-51" value="" style="edgeStyle=orthogonalEdgeStyle;rounded=0;orthogonalLoop=1;jettySize=auto;html=1;entryX=0.35;entryY=0;entryDx=0;entryDy=0;entryPerimeter=0;" edge="1" parent="1" source="DljM9G16VnVff5lQ_oat-10" target="DljM9G16VnVff5lQ_oat-15">
          <mxGeometry relative="1" as="geometry">
            <mxPoint x="284.5" y="655" as="targetPoint" />
            <Array as="points">
              <mxPoint x="375" y="730" />
              <mxPoint x="353" y="730" />
            </Array>
          </mxGeometry>
        </mxCell>
        <mxCell id="DljM9G16VnVff5lQ_oat-53" value="" style="edgeStyle=orthogonalEdgeStyle;rounded=0;orthogonalLoop=1;jettySize=auto;html=1;" edge="1" parent="1" source="DljM9G16VnVff5lQ_oat-10">
          <mxGeometry relative="1" as="geometry">
            <mxPoint x="278" y="780" as="targetPoint" />
            <Array as="points">
              <mxPoint x="375" y="730" />
              <mxPoint x="277" y="730" />
            </Array>
          </mxGeometry>
        </mxCell>
        <mxCell id="DljM9G16VnVff5lQ_oat-10" value="" style="verticalLabelPosition=bottom;sketch=0;html=1;fillColor=#6ABD46;strokeColor=#ffffff;verticalAlign=top;align=center;points=[[0.085,0.085,0],[0.915,0.085,0],[0.915,0.915,0],[0.085,0.915,0],[0.25,0,0],[0.5,0,0],[0.75,0,0],[1,0.25,0],[1,0.5,0],[1,0.75,0],[0.75,1,0],[0.5,1,0],[0.25,1,0],[0,0.75,0],[0,0.5,0],[0,0.25,0]];pointerEvents=1;shape=mxgraph.cisco_safe.compositeIcon;bgIcon=mxgraph.cisco_safe.architecture.generic_appliance;resIcon=mxgraph.cisco_safe.architecture.unified_access_switch;" vertex="1" parent="1">
          <mxGeometry x="349.5" y="630" width="50" height="50" as="geometry" />
        </mxCell>
        <mxCell id="DljM9G16VnVff5lQ_oat-27" value="" style="edgeStyle=orthogonalEdgeStyle;rounded=0;orthogonalLoop=1;jettySize=auto;html=1;" edge="1" parent="1" source="DljM9G16VnVff5lQ_oat-11" target="DljM9G16VnVff5lQ_oat-20">
          <mxGeometry relative="1" as="geometry">
            <Array as="points">
              <mxPoint x="619" y="730" />
              <mxPoint x="655" y="730" />
            </Array>
          </mxGeometry>
        </mxCell>
        <mxCell id="DljM9G16VnVff5lQ_oat-32" value="" style="edgeStyle=orthogonalEdgeStyle;rounded=0;orthogonalLoop=1;jettySize=auto;html=1;" edge="1" parent="1" source="DljM9G16VnVff5lQ_oat-11">
          <mxGeometry relative="1" as="geometry">
            <mxPoint x="720" y="790" as="targetPoint" />
            <Array as="points">
              <mxPoint x="619" y="730" />
              <mxPoint x="721" y="730" />
            </Array>
          </mxGeometry>
        </mxCell>
        <mxCell id="DljM9G16VnVff5lQ_oat-34" value="" style="edgeStyle=orthogonalEdgeStyle;rounded=0;orthogonalLoop=1;jettySize=auto;html=1;" edge="1" parent="1" source="DljM9G16VnVff5lQ_oat-11">
          <mxGeometry relative="1" as="geometry">
            <mxPoint x="560" y="780" as="targetPoint" />
            <Array as="points">
              <mxPoint x="619" y="730" />
              <mxPoint x="561" y="730" />
            </Array>
          </mxGeometry>
        </mxCell>
        <mxCell id="DljM9G16VnVff5lQ_oat-11" value="Unified Access Switch" style="verticalLabelPosition=bottom;sketch=0;html=1;fillColor=#6ABD46;strokeColor=#ffffff;verticalAlign=top;align=left;points=[[0.085,0.085,0],[0.915,0.085,0],[0.915,0.915,0],[0.085,0.915,0],[0.25,0,0],[0.5,0,0],[0.75,0,0],[1,0.25,0],[1,0.5,0],[1,0.75,0],[0.75,1,0],[0.5,1,0],[0.25,1,0],[0,0.75,0],[0,0.5,0],[0,0.25,0]];pointerEvents=1;shape=mxgraph.cisco_safe.compositeIcon;bgIcon=mxgraph.cisco_safe.architecture.generic_appliance;resIcon=mxgraph.cisco_safe.architecture.unified_access_switch;fontStyle=1;labelBackgroundColor=default;labelPosition=right;" vertex="1" parent="1">
          <mxGeometry x="594" y="630" width="50" height="50" as="geometry" />
        </mxCell>
        <mxCell id="DljM9G16VnVff5lQ_oat-14" value="" style="points=[[0.22,0.185,0],[0.5,0,0],[0.78,0.185,0],[0.975,0.49,0],[1,0.73,0],[0.975,0.97,0],[0.5,1,0],[0.025,0.97,0],[0,0.73,0],[0.025,0.49,0]];verticalLabelPosition=bottom;sketch=0;html=1;verticalAlign=top;aspect=fixed;align=center;pointerEvents=1;shape=mxgraph.cisco19.printer;fillColor=#005073;strokeColor=none;" vertex="1" parent="1">
          <mxGeometry x="250" y="790" width="50" height="45" as="geometry" />
        </mxCell>
        <mxCell id="DljM9G16VnVff5lQ_oat-15" value="" style="points=[[0.35,0,0],[0.98,0.51,0],[1,0.71,0],[0.67,1,0],[0,0.795,0],[0,0.65,0]];verticalLabelPosition=bottom;sketch=0;html=1;verticalAlign=top;aspect=fixed;align=center;pointerEvents=1;shape=mxgraph.cisco19.user;fillColor=#005073;strokeColor=none;" vertex="1" parent="1">
          <mxGeometry x="335" y="787.5" width="50" height="50" as="geometry" />
        </mxCell>
        <mxCell id="DljM9G16VnVff5lQ_oat-17" value="" style="points=[[0.13,0.02,0],[0.5,0,0],[0.87,0.02,0],[0.885,0.4,0],[0.985,0.985,0],[0.5,1,0],[0.015,0.985,0],[0.115,0.4,0]];verticalLabelPosition=bottom;sketch=0;html=1;verticalAlign=top;aspect=fixed;align=center;pointerEvents=1;shape=mxgraph.cisco19.secure_endpoints;fillColor=#005073;strokeColor=none;" vertex="1" parent="1">
          <mxGeometry x="413.5" y="795" width="50" height="35" as="geometry" />
        </mxCell>
        <mxCell id="DljM9G16VnVff5lQ_oat-18" value="" style="points=[[0.13,0.02,0],[0.5,0,0],[0.87,0.02,0],[0.885,0.4,0],[0.985,0.985,0],[0.5,1,0],[0.015,0.985,0],[0.115,0.4,0]];verticalLabelPosition=bottom;sketch=0;html=1;verticalAlign=top;aspect=fixed;align=center;pointerEvents=1;shape=mxgraph.cisco19.secure_endpoints;fillColor=#005073;strokeColor=none;" vertex="1" parent="1">
          <mxGeometry x="710" y="795" width="50" height="35" as="geometry" />
        </mxCell>
        <mxCell id="DljM9G16VnVff5lQ_oat-19" value="" style="points=[[0.35,0,0],[0.98,0.51,0],[1,0.71,0],[0.67,1,0],[0,0.795,0],[0,0.65,0]];verticalLabelPosition=bottom;sketch=0;html=1;verticalAlign=top;aspect=fixed;align=center;pointerEvents=1;shape=mxgraph.cisco19.user;fillColor=#005073;strokeColor=none;" vertex="1" parent="1">
          <mxGeometry x="539" y="787.5" width="50" height="50" as="geometry" />
        </mxCell>
        <mxCell id="DljM9G16VnVff5lQ_oat-20" value="End Point Devices" style="points=[[0.22,0.185,0],[0.5,0,0],[0.78,0.185,0],[0.975,0.49,0],[1,0.73,0],[0.975,0.97,0],[0.5,1,0],[0.025,0.97,0],[0,0.73,0],[0.025,0.49,0]];verticalLabelPosition=bottom;sketch=0;html=1;verticalAlign=top;aspect=fixed;align=center;pointerEvents=1;shape=mxgraph.cisco19.printer;fillColor=#005073;strokeColor=none;fontStyle=1;labelBackgroundColor=default;textShadow=0;" vertex="1" parent="1">
          <mxGeometry x="630" y="792.5" width="50" height="45" as="geometry" />
        </mxCell>
        <mxCell id="DljM9G16VnVff5lQ_oat-30" value="" style="endArrow=classic;startArrow=classic;html=1;rounded=0;entryX=0;entryY=0.5;entryDx=0;entryDy=0;entryPerimeter=0;exitX=1;exitY=0.5;exitDx=0;exitDy=0;exitPerimeter=0;" edge="1" parent="1">
          <mxGeometry width="50" height="50" relative="1" as="geometry">
            <mxPoint x="399.5" y="519.5" as="sourcePoint" />
            <mxPoint x="589" y="519.5" as="targetPoint" />
            <Array as="points" />
          </mxGeometry>
        </mxCell>
        <mxCell id="DljM9G16VnVff5lQ_oat-46" value="" style="endArrow=classic;html=1;rounded=0;entryX=0.5;entryY=0;entryDx=0;entryDy=0;entryPerimeter=0;exitX=0.5;exitY=1;exitDx=0;exitDy=0;exitPerimeter=0;" edge="1" parent="1" source="DljM9G16VnVff5lQ_oat-7" target="DljM9G16VnVff5lQ_oat-11">
          <mxGeometry width="50" height="50" relative="1" as="geometry">
            <mxPoint x="400" y="520" as="sourcePoint" />
            <mxPoint x="450" y="470" as="targetPoint" />
            <Array as="points">
              <mxPoint x="480" y="580" />
            </Array>
          </mxGeometry>
        </mxCell>
        <mxCell id="DljM9G16VnVff5lQ_oat-47" value="" style="endArrow=classic;html=1;rounded=0;entryX=0.5;entryY=0;entryDx=0;entryDy=0;entryPerimeter=0;exitX=0.5;exitY=1;exitDx=0;exitDy=0;exitPerimeter=0;" edge="1" parent="1" source="DljM9G16VnVff5lQ_oat-6" target="DljM9G16VnVff5lQ_oat-10">
          <mxGeometry width="50" height="50" relative="1" as="geometry">
            <mxPoint x="400" y="520" as="sourcePoint" />
            <mxPoint x="450" y="470" as="targetPoint" />
          </mxGeometry>
        </mxCell>
        <mxCell id="DljM9G16VnVff5lQ_oat-58" value="Servers" style="sketch=0;pointerEvents=1;shadow=0;dashed=0;html=1;strokeColor=none;fillColor=#505050;labelPosition=center;verticalLabelPosition=bottom;verticalAlign=top;outlineConnect=0;align=center;shape=mxgraph.office.servers.database_server_green;fontStyle=1;fontSize=14;" vertex="1" parent="1">
          <mxGeometry x="170" y="495" width="43" height="56" as="geometry" />
        </mxCell>
        <mxCell id="DljM9G16VnVff5lQ_oat-59" value="" style="sketch=0;pointerEvents=1;shadow=0;dashed=0;html=1;strokeColor=none;fillColor=#505050;labelPosition=center;verticalLabelPosition=bottom;verticalAlign=top;outlineConnect=0;align=center;shape=mxgraph.office.servers.application_server_orange;" vertex="1" parent="1">
          <mxGeometry x="240" y="492" width="46" height="56" as="geometry" />
        </mxCell>
        <mxCell id="DljM9G16VnVff5lQ_oat-66" value="" style="endArrow=classic;startArrow=classic;html=1;rounded=0;entryX=0;entryY=0.5;entryDx=0;entryDy=0;entryPerimeter=0;" edge="1" parent="1" source="DljM9G16VnVff5lQ_oat-59" target="DljM9G16VnVff5lQ_oat-7">
          <mxGeometry width="50" height="50" relative="1" as="geometry">
            <mxPoint x="285" y="495" as="sourcePoint" />
            <mxPoint x="335" y="445" as="targetPoint" />
          </mxGeometry>
        </mxCell>
      </root>
    </mxGraphModel>
  </diagram>
</mxfile>
